<?xml version="1.0" standalone="no"?>
<!DOCTYPE svg PUBLIC "-//W3C//DTD SVG 20010904//EN"
 "http://www.w3.org/TR/2001/REC-SVG-20010904/DTD/svg10.dtd">
<svg version="1.0" xmlns="http://www.w3.org/2000/svg"
 width="576.000000pt" height="576.000000pt" viewBox="0 0 576.000000 576.000000"
 preserveAspectRatio="xMidYMid meet">
<metadata>
Created by potrace 1.14, written by Peter Selinger 2001-2017
</metadata>
<g transform="translate(0.000000,576.000000) scale(0.100000,-0.100000)"
fill="#000000" stroke="none">
<path d="M1288 5125 c-2 -3 -24 -7 -49 -10 -24 -3 -58 -8 -75 -10 -47 -6 -177
-51 -242 -84 -113 -58 -218 -147 -296 -251 -40 -53 -48 -66 -85 -134 -30 -55
-77 -199 -97 -299 -2 -10 -6 -27 -9 -37 -3 -10 -8 -28 -10 -41 -2 -12 -11 -45
-19 -73 -8 -28 -17 -65 -21 -83 -3 -18 -9 -43 -15 -57 -5 -15 -7 -26 -5 -26 2
0 0 -11 -5 -25 -5 -14 -12 -36 -14 -48 -3 -12 -17 -69 -31 -127 -15 -58 -28
-112 -30 -120 -2 -8 -16 -62 -30 -120 -15 -58 -28 -109 -29 -115 -1 -5 -5 -19
-9 -30 -3 -11 -8 -31 -11 -45 -2 -14 -9 -45 -16 -70 -12 -44 -17 -64 -26 -107
-2 -12 -9 -34 -14 -48 -5 -14 -7 -25 -4 -25 2 0 0 -8 -5 -17 -5 -10 -11 -31
-14 -48 -3 -16 -32 -131 -64 -255 l-58 -225 0 -495 1 -495 27 -95 c44 -156 81
-240 145 -337 20 -31 42 -63 47 -71 22 -35 121 -137 195 -202 168 -148 462
-256 692 -255 49 0 88 -2 88 -5 0 -3 25 -5 55 -5 30 0 55 2 55 5 0 3 29 5 65
5 36 0 65 -2 65 -5 0 -6 100 -4 185 4 205 19 405 93 572 212 149 105 299 286
373 449 34 74 75 199 84 261 4 20 8 46 11 58 3 12 7 53 10 91 10 157 18 261
20 280 1 11 3 34 4 52 l1 31 123 2 c150 2 133 2 190 -1 43 -2 47 -4 48 -28 1
-14 3 -39 4 -56 2 -16 6 -66 9 -110 14 -217 26 -314 47 -390 101 -373 383
-672 747 -794 131 -45 228 -57 493 -64 38 -1 69 0 69 3 0 3 29 5 65 5 36 0 65
-3 65 -7 0 -4 6 -5 13 -3 6 2 50 7 97 9 116 7 161 14 260 43 231 66 450 214
592 398 12 17 26 32 30 33 5 2 8 8 8 14 0 5 13 28 29 51 51 75 122 242 135
319 3 15 7 31 9 35 17 28 22 164 22 578 0 259 -3 481 -7 495 -8 31 -68 269
-73 290 -1 8 -20 80 -40 160 -20 80 -38 152 -40 160 -2 8 -49 197 -105 420
-56 223 -103 412 -105 420 -1 8 -8 35 -15 60 -7 25 -14 53 -16 62 -10 44 -14
59 -39 158 -14 58 -28 114 -30 125 -35 162 -188 386 -329 482 -22 15 -43 31
-46 34 -6 8 -180 92 -201 98 -118 29 -203 40 -303 36 -61 -2 -120 -6 -131 -8
-155 -36 -310 -94 -337 -124 -51 -59 -54 -106 -12 -234 38 -114 79 -172 131
-182 35 -6 108 -1 125 9 7 5 18 9 23 10 6 2 33 10 60 19 70 23 110 29 185 28
80 -1 100 -6 165 -38 64 -31 139 -104 170 -165 21 -41 49 -128 60 -185 2 -11
10 -44 18 -73 9 -29 16 -55 16 -57 1 -3 1 -6 2 -7 2 -8 9 -36 13 -58 3 -14 15
-61 26 -105 12 -44 23 -90 26 -103 2 -12 18 -74 34 -137 16 -63 32 -125 34
-137 3 -13 17 -68 31 -123 15 -55 28 -109 31 -120 7 -37 13 -60 28 -113 8 -29
15 -55 15 -57 1 -3 1 -6 2 -7 0 -2 2 -10 4 -18 10 -45 15 -69 25 -105 6 -22
13 -53 16 -70 3 -16 10 -38 15 -47 5 -10 8 -18 5 -18 -3 0 1 -20 9 -45 12 -42
12 -45 -3 -41 -18 6 -128 35 -152 41 -50 12 -109 25 -135 29 -16 3 -39 8 -51
10 -12 2 -43 7 -70 10 -27 4 -65 9 -84 11 -126 17 -378 22 -510 10 -81 -7
-148 -14 -173 -20 -12 -2 -38 -7 -57 -10 -51 -7 -93 -15 -112 -21 -10 -3 -30
-7 -45 -10 -115 -21 -482 -150 -532 -188 -9 -7 -141 -11 -375 -11 -400 -1
-353 -8 -551 75 -149 62 -384 130 -535 155 -19 3 -46 8 -60 10 -14 3 -52 7
-85 10 -33 3 -82 8 -110 11 -174 22 -527 -3 -745 -51 -14 -4 -36 -8 -50 -11
-14 -3 -50 -12 -80 -20 -137 -37 -130 -37 -120 -10 4 12 11 40 14 60 4 21 9
43 13 49 3 5 7 20 9 31 1 12 12 57 24 101 12 44 24 91 26 105 3 14 10 43 16
65 6 22 12 47 13 55 2 8 4 16 5 18 3 3 23 84 25 102 0 3 4 11 9 18 4 7 6 16 3
19 -3 3 -2 16 3 29 6 14 12 35 14 47 3 12 12 49 21 82 8 33 18 69 20 80 5 19
71 282 79 316 14 55 37 147 41 164 2 11 11 47 20 80 8 33 17 69 20 79 22 91
52 142 125 213 29 28 108 75 125 74 2 0 22 6 42 13 64 22 185 13 273 -21 8 -3
20 -7 27 -9 7 -1 34 -9 60 -18 26 -8 62 -14 78 -12 17 2 37 4 46 5 37 3 85 70
117 163 41 120 44 155 22 205 -23 52 -58 76 -166 112 -139 46 -209 62 -296 67
-44 2 -83 6 -88 9 -4 2 -9 2 -12 0z m237 -2850 c39 -3 86 -8 105 -10 40 -3 50
-5 185 -36 55 -13 134 -35 175 -49 62 -21 75 -29 73 -45 -1 -11 -5 -60 -8
-110 -3 -49 -8 -110 -10 -135 -2 -25 -7 -81 -10 -125 -9 -113 -48 -218 -109
-292 -37 -46 -136 -130 -136 -116 0 4 -4 3 -8 -3 -7 -10 -61 -37 -99 -48 -70
-21 -154 -30 -243 -25 -8 1 -31 1 -50 0 -19 -1 -42 -1 -50 0 -8 1 -40 0 -70
-1 -89 -2 -212 7 -260 20 -125 33 -260 144 -316 261 -53 108 -58 154 -53 516
l1 81 36 10 c21 6 69 20 107 31 39 12 79 23 90 25 11 3 52 11 90 19 83 18 154
27 249 33 38 2 71 5 72 7 4 4 169 -1 239 -8z m3030 1 c104 -8 119 -10 200 -25
133 -25 166 -33 283 -71 l77 -25 5 -63 c3 -34 3 -62 0 -62 -4 0 -4 -43 0 -135
4 -84 -10 -225 -28 -276 -50 -142 -171 -261 -313 -309 -53 -18 -135 -32 -179
-31 -21 0 -223 0 -235 0 -5 -1 -62 1 -125 4 -90 4 -129 10 -180 29 -100 38
-173 92 -234 172 -75 99 -96 173 -111 396 -8 123 -16 243 -17 249 -2 21 6 29
45 41 23 8 47 16 52 19 6 3 15 6 20 7 6 1 30 8 55 15 25 7 47 13 50 14 24 6
70 16 90 20 14 3 39 8 55 11 39 8 75 12 154 18 35 3 65 7 67 8 4 5 175 1 269
-6z"/>
</g>
</svg>
